<?xml version="1.0" encoding="UTF-8"?>
<svg id="Layer_1" xmlns="http://www.w3.org/2000/svg" version="1.1" viewBox="0 0 32 32">
  <!-- Generator: Adobe Illustrator 29.8.1, SVG Export Plug-In . SVG Version: 2.1.1 Build 2)  -->
  <defs>
    <style>
      .st0 {
        fill: #00943b;
      }

      .st1 {
        fill: #fff;
      }
    </style>
  </defs>
  <ellipse class="st0" cx="16" cy="16" rx="14.8" ry="14.8"/>
  <g>
    <path class="st1" d="M7.1,10.4h-.9c0,0,0-1.1,0-1.1h.9c0-.8.1-1.7.9-2.1s2.8-.2,3.8,0,1.9.4,1.9.5v1.2c-.8-.2-1.6-.4-2.4-.6s-1.6-.2-2-.2c-.8.1-.7.6-.7,1.3h15v-.9c-.6-.8-1.4-.3-1.2.6h-1.4c0-.5,0-1,.4-1.4.8-1,2.9-.9,3.4.2s.2,1,.2,1.5h.9s0,1.1,0,1.1h-.9s0,5,0,5h-1.4v-5h-1.5v1.6h-2.3c-.2,0-.6.4-.7.6-.3,1.5,1.7,1.7,1.8.3h1.3v2.7h-1.3v-1c-.3,0-.4.3-.7.3-1,.2-2-.2-2.4-1.2s-.2-.8,0-1.1h-1.5s0,1,0,1h-.1c0,.1-.9,0-.9,0-.3-.5-.6-1.5,0-1.9s2.2,0,3-.2.4-.3.6-.4c.6-.3,1.2-.3,1.8-.3v-.5h-6.8v1.5h-2.5c-.2.2,0,.4,0,.6h1.3c0,0,.7.2.8.3.6.4.6.9.6,1.6h-1.3c.4-1-.9-1.1-1.4-.5-.3,1.4,1.6,1,2.4.8v1c-1.8.9-5.2-.5-3.3-2.8-.8-.4-.8-1.6,0-2s.4-.1.4-.1h1.7v-.4h-4v7.4h-1.4v-7.4Z"/>
    <g>
      <path class="st1" d="M7.1,17h5.6v1.8h-3.4v.7h3.2v1.6h-3.2v.7h3.5v1.8h-5.7v-6.6Z"/>
      <path class="st1" d="M13.3,18.4h2.1v.7c.3-.4.8-.8,1.6-.8,1.1,0,1.8.7,1.8,1.9v3.4h-2.1v-2.7c0-.4-.3-.7-.6-.7s-.6.3-.6.7v2.7h-2.1v-5.1Z"/>
      <path class="st1" d="M19.3,24.5l.7-1.3c.6.3,1.1.5,1.9.5s1.2-.4,1.2-1.1v-.2c-.3.3-.8.7-1.5.7-1.3,0-2.3-.9-2.3-2.4h0c0-1.5,1-2.4,2.2-2.4s1.2.3,1.6.7v-.5h2.1v3.8c0,1-.2,1.6-.7,2.1s-1.2.8-2.3.8-2-.2-2.8-.6ZM23,20.7h0c0-.5-.3-.8-.9-.8s-.9.4-.9.8h0c0,.5.3.8.9.8s.9-.4.9-.8Z"/>
    </g>
  </g>
</svg>